<svg width="30" height="30" viewBox="0 0 30 30" fill="none" xmlns="http://www.w3.org/2000/svg">
<path d="M14.6791 23.924H16.4717C16.4717 23.924 17.0134 23.8613 17.2893 23.5476C17.5445 23.2599 17.5348 22.7193 17.5348 22.7193C17.5348 22.7193 17.4994 20.1896 18.617 19.8167C19.7177 19.4499 21.1314 22.2623 22.6296 23.3446C23.7622 24.1626 24.623 23.9834 24.623 23.9834L28.6302 23.9241C28.6302 23.9241 30.7264 23.7881 29.7326 22.0549C29.6522 21.9133 29.1532 20.7733 26.7531 18.4306C24.2404 15.9776 24.5775 16.3758 27.6042 12.1343C29.4475 9.55134 30.1847 7.97378 29.9538 7.2994C29.7344 6.6566 28.379 6.82632 28.379 6.82632L23.8709 6.85407C23.8709 6.85407 23.537 6.80654 23.2879 6.96241C23.0456 7.11603 22.89 7.47116 22.89 7.47116C22.89 7.47116 22.1757 9.47037 21.2232 11.1706C19.2148 14.7571 18.4106 14.9465 18.0822 14.7235C17.3189 14.2051 17.5105 12.6372 17.5105 11.5251C17.5105 8.04862 18.0113 6.5995 16.5335 6.22492C16.042 6.10064 15.6822 6.01776 14.4279 6.00417C12.8188 5.98624 11.4556 6.00998 10.6851 6.40618C10.1712 6.67051 9.7754 7.26023 10.0173 7.2936C10.3155 7.33507 10.9905 7.48481 11.3488 7.99772C11.8121 8.65819 11.7951 10.1451 11.7951 10.1451C11.7951 10.1451 12.0611 14.2363 11.1742 14.7454C10.5647 15.0944 9.73057 14.3822 7.93964 11.1267C7.02279 9.46075 6.32902 7.61681 6.32902 7.61681C6.32902 7.61681 6.19592 7.27415 5.95777 7.09065C5.66894 6.86772 5.26374 6.79704 5.26374 6.79704L0.977536 6.82427C0.977536 6.82427 0.334118 6.84438 0.0978502 7.13773C-0.112012 7.40041 0.0810007 7.94055 0.0810007 7.94055C0.0810007 7.94055 3.43747 16.1965 7.23687 20.3589C10.7226 24.1745 14.6791 23.924 14.6791 23.924Z" fill="#1F8EEF"/>
</svg>
