<svg width="40" height="40" viewBox="0 0 40 40" fill="none" xmlns="http://www.w3.org/2000/svg">
<g clip-path="url(#clip0_601_2)">
<path d="M20 40C31.0457 40 40 31.0457 40 20C40 8.9543 31.0457 0 20 0C8.9543 0 0 8.9543 0 20C0 31.0457 8.9543 40 20 40Z" fill="#25D366"/>
<path d="M28.8581 11.0906C26.5075 8.73751 23.3822 7.44126 20.0522 7.4397C13.1916 7.4397 7.60656 13.0234 7.60437 19.8869C7.60312 22.0813 8.17656 24.2228 9.26562 26.1097L7.5 32.5603L14.0984 30.8297C15.9169 31.8206 17.9638 32.3434 20.0472 32.3444H20.0525C26.9131 32.3444 32.4972 26.7597 32.5 19.8966C32.5016 16.5709 31.2075 13.4434 28.8581 11.0906ZM20.0525 30.2419H20.0484C18.1912 30.2413 16.3706 29.7425 14.7819 28.8L14.4041 28.5756L10.4884 29.6028L11.5331 25.7853L11.2872 25.3928C10.2512 23.7459 9.70406 21.8425 9.70531 19.8869C9.70719 14.1828 14.3488 9.54189 20.0556 9.54189C22.8194 9.54251 25.4166 10.6203 27.3703 12.5763C29.3237 14.5319 30.3988 17.1309 30.3981 19.8956C30.3963 25.6006 25.7547 30.2419 20.0525 30.2419ZM25.7275 22.4934C25.4163 22.3375 23.8872 21.5859 23.6019 21.4813C23.3166 21.3775 23.11 21.3259 22.9025 21.6372C22.695 21.9484 22.0991 22.6494 21.9172 22.8569C21.7359 23.0644 21.5547 23.0906 21.2434 22.9347C20.9322 22.7788 19.9303 22.4506 18.7431 21.3906C17.8181 20.5666 17.1937 19.5472 17.0125 19.2359C16.8312 18.9247 16.9931 18.7569 17.1491 18.6016C17.2891 18.4622 17.4603 18.2384 17.6156 18.0566C17.7709 17.8747 17.8228 17.745 17.9266 17.5378C18.0303 17.3303 17.9788 17.1488 17.9006 16.9931C17.8225 16.8372 17.2006 15.3063 16.9419 14.6834C16.6891 14.0769 16.4328 14.1591 16.2422 14.1497C16.0603 14.1409 15.8531 14.1384 15.6459 14.1384C15.4388 14.1384 15.1016 14.2163 14.8166 14.5278C14.5319 14.8391 13.7281 15.5913 13.7281 17.1228C13.7281 18.6534 14.8425 20.1328 14.9981 20.34C15.1537 20.5472 17.1913 23.6894 20.3113 25.0366C21.0531 25.3566 21.6328 25.5481 22.0844 25.6919C22.8294 25.9291 23.5075 25.895 24.0438 25.815C24.6413 25.7259 25.8837 25.0628 26.1434 24.3363C26.4025 23.61 26.4025 22.9875 26.3241 22.8575C26.2456 22.7272 26.0381 22.6494 25.7275 22.4934Z" fill="white"/>
</g>
<defs>
<clipPath id="clip0_601_2">
<rect width="40" height="40" fill="white"/>
</clipPath>
</defs>
</svg>
