<svg width="400" height="320" viewBox="0 0 400 320" fill="none" xmlns="http://www.w3.org/2000/svg">
<path opacity="0.75" d="M363.393 0C191.792 0 53.6209 297.853 0 320C95.0124 320 300.447 320 400 320C400 320 399.769 160.472 399.769 0H363.393Z" fill="#79C2EB" fill-opacity="0.4"/>
<path opacity="0.75" d="M369.494 53.3333C226.494 53.3333 111.351 301.544 66.6666 320C145.844 320 317.039 320 400 320C400 320 399.807 187.06 399.807 53.3333H369.494Z" fill="#79C2EB" fill-opacity="0.6"/>
<path opacity="0.75" d="M375.595 106.667C261.195 106.667 169.081 305.236 133.333 320C196.675 320 333.631 320 400 320C400 320 399.846 213.648 399.846 106.667H375.595Z" fill="#79C2EB" fill-opacity="0.8"/>
<path opacity="0.75" d="M381.696 160C295.896 160 226.81 308.927 200 320C247.506 320 350.224 320 400 320C400 320 399.884 240.236 399.884 160H381.696Z" fill="#79C2EB"/>
</svg>
