<svg width="1840" height="472" viewBox="0 0 1840 472" fill="none" xmlns="http://www.w3.org/2000/svg">
<path d="M236 460C236 460 1207.32 460 1828 460" stroke="#086B8A" stroke-width="24" stroke-linecap="round"/>
<path d="M559.09 182.264H569.748C571.575 180.234 572.996 177.324 574.011 173.535C575.026 169.746 575.77 165.584 576.244 161.05C576.717 156.449 576.988 151.679 577.056 146.739C577.191 141.799 577.259 137.13 577.259 132.732V95.38H663.229V182.264H677.439V229.056H652.978V205H583.552V229.056H559.09V182.264ZM638.768 182.264V118.116H599.792V144.607C599.792 152.457 599.352 159.663 598.472 166.227C597.66 172.791 596.51 178.136 595.021 182.264H638.768ZM792.657 95.38V205H768.196V132.935L721.912 205H697.45V95.38H721.912V167.445L768.196 95.38H792.657ZM865.311 92.335C881.009 92.335 892.648 96.293 900.23 104.21C907.87 112.06 911.7 124.071 911.7 140.243V205H887.336V190.282C880.096 202.124 868.288 208.045 851.913 208.045C846.364 208.045 841.323 207.267 836.789 205.711C832.256 204.154 828.365 201.955 825.117 199.113C821.936 196.203 819.467 192.718 817.707 188.658C815.948 184.598 815.068 180.099 815.068 175.159C815.068 164.4 818.756 156.043 826.132 150.088C833.575 144.134 844.334 140.277 858.409 138.517L887.235 134.965C887.032 127.657 885.103 122.311 881.449 118.928C877.795 115.545 872.416 113.853 865.311 113.853C858.679 113.853 853.435 115.071 849.578 117.507C845.721 119.943 842.947 123.8 841.255 129.078L819.027 123.089C821.936 113.075 827.35 105.462 835.267 100.252C843.184 94.974 853.198 92.335 865.311 92.335ZM861.86 155.975C854.01 156.923 848.225 158.817 844.503 161.659C840.849 164.434 839.022 168.257 839.022 173.129C839.022 182.805 845.281 187.643 857.8 187.643C861.183 187.643 864.33 187.204 867.239 186.324C870.149 185.444 872.754 184.26 875.055 182.771C877.423 181.215 879.453 179.388 881.145 177.29C882.836 175.125 884.122 172.824 885.002 170.388C886.152 167.749 886.829 164.941 887.032 161.964C887.235 158.987 887.336 156.28 887.336 153.844V152.829L861.86 155.975ZM938.12 205V95.38H1010.69V118.116H962.68V205H938.12ZM1029.7 205V95.38H1054.17V138.822H1103.39V95.38H1127.85V205H1103.39V161.558H1054.17V205H1029.7ZM1204.6 208.045C1196.42 208.045 1188.97 206.624 1182.27 203.782C1175.57 200.94 1169.82 196.981 1165.02 191.906C1160.28 186.831 1156.59 180.741 1153.95 173.636C1151.38 166.531 1150.1 158.716 1150.1 150.19C1150.1 141.664 1151.42 133.848 1154.06 126.743C1156.7 119.638 1160.38 113.548 1165.12 108.473C1169.92 103.331 1175.68 99.372 1182.37 96.598C1189.07 93.756 1196.48 92.335 1204.6 92.335C1212.86 92.335 1220.34 93.756 1227.03 96.598C1233.73 99.372 1239.49 103.331 1244.29 108.473C1249.09 113.548 1252.78 119.638 1255.35 126.743C1257.99 133.848 1259.31 141.664 1259.31 150.19C1259.31 158.716 1257.99 166.531 1255.35 173.636C1252.71 180.741 1248.99 186.865 1244.19 192.008C1239.45 197.083 1233.7 201.041 1226.93 203.883C1220.23 206.658 1212.79 208.045 1204.6 208.045ZM1204.6 185.106C1209.2 185.106 1213.3 184.328 1216.88 182.771C1220.47 181.147 1223.48 178.847 1225.92 175.869C1228.35 172.824 1230.21 169.137 1231.5 164.806C1232.79 160.475 1233.43 155.603 1233.43 150.19C1233.43 144.709 1232.79 139.803 1231.5 135.472C1230.28 131.142 1228.46 127.488 1226.02 124.51C1223.58 121.465 1220.57 119.165 1216.99 117.608C1213.4 116.052 1209.27 115.274 1204.6 115.274C1195.27 115.274 1188.16 118.353 1183.29 124.51C1178.42 130.6 1175.98 139.16 1175.98 150.19C1175.98 155.671 1176.59 160.577 1177.81 164.907C1179.09 169.238 1180.95 172.892 1183.39 175.869C1185.83 178.847 1188.8 181.147 1192.32 182.771C1195.91 184.328 1200 185.106 1204.6 185.106ZM1329.28 208.045C1320.89 208.045 1313.38 206.59 1306.75 203.68C1300.11 200.771 1294.46 196.745 1289.79 191.602C1285.19 186.459 1281.67 180.369 1279.24 173.332C1276.8 166.227 1275.58 158.513 1275.58 150.19C1275.58 141.732 1276.84 133.984 1279.34 126.946C1281.91 119.841 1285.53 113.718 1290.2 108.575C1294.87 103.432 1300.52 99.44 1307.15 96.598C1313.85 93.756 1321.33 92.335 1329.58 92.335C1335.81 92.335 1341.59 93.147 1346.94 94.771C1352.29 96.395 1357.06 98.729 1361.25 101.774C1365.45 104.752 1368.96 108.406 1371.81 112.736C1374.72 117.067 1376.81 121.939 1378.1 127.352L1353.74 133.95C1351.85 127.995 1348.7 123.394 1344.3 120.146C1339.97 116.898 1334.96 115.274 1329.28 115.274C1324.54 115.274 1320.41 116.154 1316.9 117.913C1313.44 119.605 1310.57 122.007 1308.27 125.119C1305.97 128.164 1304.24 131.852 1303.09 136.183C1302.01 140.446 1301.47 145.115 1301.47 150.19C1301.47 155.4 1302.04 160.171 1303.19 164.501C1304.41 168.764 1306.17 172.418 1308.47 175.463C1310.84 178.508 1313.75 180.877 1317.2 182.568C1320.65 184.26 1324.68 185.106 1329.28 185.106C1335.84 185.106 1340.98 183.617 1344.71 180.64C1348.43 177.663 1351.24 173.366 1353.13 167.749L1378.1 173.332C1374.65 184.565 1368.73 193.158 1360.34 199.113C1351.95 205.068 1341.59 208.045 1329.28 208.045ZM1421.17 205V118.116H1385.34V95.38H1481.46V118.116H1445.63V205H1421.17ZM1595.74 95.38V205H1571.27V132.935L1524.99 205H1500.53V95.38H1524.99V167.445L1571.27 95.38H1595.74ZM1624.03 95.38H1648.5V148.16L1688.59 95.38H1719.14L1676.61 150.19L1722.79 205H1690.42L1648.5 152.22V205H1624.03V95.38ZM1777.03 92.335C1792.73 92.335 1804.36 96.293 1811.94 104.21C1819.59 112.06 1823.41 124.071 1823.41 140.243V205H1799.05V190.282C1791.81 202.124 1780 208.045 1763.63 208.045C1758.08 208.045 1753.04 207.267 1748.51 205.711C1743.97 204.154 1740.08 201.955 1736.83 199.113C1733.65 196.203 1731.18 192.718 1729.42 188.658C1727.66 184.598 1726.78 180.099 1726.78 175.159C1726.78 164.4 1730.47 156.043 1737.85 150.088C1745.29 144.134 1756.05 140.277 1770.12 138.517L1798.95 134.965C1798.75 127.657 1796.82 122.311 1793.17 118.928C1789.51 115.545 1784.13 113.853 1777.03 113.853C1770.4 113.853 1765.15 115.071 1761.29 117.507C1757.44 119.943 1754.66 123.8 1752.97 129.078L1730.74 123.089C1733.65 113.075 1739.07 105.462 1746.98 100.252C1754.9 94.974 1764.91 92.335 1777.03 92.335ZM1773.58 155.975C1765.73 156.923 1759.94 158.817 1756.22 161.659C1752.57 164.434 1750.74 168.257 1750.74 173.129C1750.74 182.805 1757 187.643 1769.52 187.643C1772.9 187.643 1776.05 187.204 1778.96 186.324C1781.86 185.444 1784.47 184.26 1786.77 182.771C1789.14 181.215 1791.17 179.388 1792.86 177.29C1794.55 175.125 1795.84 172.824 1796.72 170.388C1797.87 167.749 1798.54 164.941 1798.75 161.964C1798.95 158.987 1799.05 156.28 1799.05 153.844V152.829L1773.58 155.975ZM662.214 282.38V392H637.753V319.935L591.469 392H567.007V282.38H591.469V354.445L637.753 282.38H662.214ZM721.205 372.309C722.829 372.783 724.385 373.019 725.874 373.019C728.513 373.019 730.712 372.174 732.471 370.482C734.298 368.723 735.719 366.151 736.734 362.768C737.817 359.385 738.561 355.189 738.967 350.182C739.441 345.107 739.678 339.288 739.678 332.724V282.38H824.633V392H800.172V305.116H762.211V341.25C762.211 350.52 761.568 358.539 760.282 365.305C758.996 372.072 757.136 377.655 754.7 382.053C752.264 386.451 749.219 389.733 745.565 391.898C741.978 393.996 737.851 395.045 733.182 395.045C729.46 395.045 725.468 394.402 721.205 393.117V372.309ZM901.69 372.512C907.99 372.512 913.2 371.226 917.32 368.655C921.45 366.016 924.73 362.091 927.17 356.881L951.33 363.783C947.06 373.798 940.64 381.512 932.04 386.925C923.45 392.338 913.33 395.045 901.69 395.045C893.506 395.045 886.029 393.658 879.262 390.883C872.563 388.041 866.812 384.083 862.007 379.008C857.271 373.865 853.583 367.741 850.944 360.636C848.305 353.531 846.985 345.716 846.985 337.19C846.985 328.529 848.305 320.645 850.944 313.54C853.65 306.435 857.406 300.345 862.21 295.27C867.015 290.195 872.732 286.271 879.364 283.496C886.063 280.722 893.438 279.335 901.49 279.335C910.22 279.335 917.9 280.857 924.53 283.902C931.23 286.947 936.78 291.278 941.18 296.894C945.58 302.511 948.76 309.311 950.72 317.296C952.68 325.213 953.29 334.111 952.55 343.99H873.274C874.356 353.058 877.334 360.095 882.206 365.102C887.145 370.042 893.641 372.512 901.69 372.512ZM927.68 325.517C927.07 317.736 924.46 311.713 919.86 307.45C915.33 303.187 909.2 301.056 901.49 301.056C894.047 301.056 887.957 303.187 883.221 307.45C878.552 311.713 875.439 317.736 873.883 325.517H927.68ZM1034.98 392V351.806C1031.73 353.836 1027.74 355.426 1023 356.576C1018.33 357.659 1013.29 358.2 1007.88 358.2C994.82 358.2 985.07 354.783 978.64 347.949C972.28 341.047 969.1 330.592 969.1 316.585V282.38H993.56V313.033C993.56 316.89 993.87 320.307 994.48 323.284C995.15 326.262 996.24 328.732 997.73 330.694C999.28 332.656 1001.31 334.145 1003.82 335.16C1006.39 336.175 1009.6 336.682 1013.46 336.682C1017.65 336.682 1021.48 336.141 1024.93 335.058C1028.38 333.908 1031.73 332.183 1034.98 329.882V282.38H1059.34V392H1034.98ZM1136.41 372.512C1142.71 372.512 1147.92 371.226 1152.04 368.655C1156.17 366.016 1159.45 362.091 1161.89 356.881L1186.05 363.783C1181.78 373.798 1175.35 381.512 1166.76 386.925C1158.17 392.338 1148.05 395.045 1136.41 395.045C1128.22 395.045 1120.75 393.658 1113.98 390.883C1107.28 388.041 1101.53 384.083 1096.73 379.008C1091.99 373.865 1088.3 367.741 1085.66 360.636C1083.02 353.531 1081.7 345.716 1081.7 337.19C1081.7 328.529 1083.02 320.645 1085.66 313.54C1088.37 306.435 1092.12 300.345 1096.93 295.27C1101.73 290.195 1107.45 286.271 1114.08 283.496C1120.78 280.722 1128.16 279.335 1136.21 279.335C1144.94 279.335 1152.62 280.857 1159.25 283.902C1165.95 286.947 1171.5 291.278 1175.9 296.894C1180.29 302.511 1183.47 309.311 1185.44 317.296C1187.4 325.213 1188.01 334.111 1187.26 343.99H1107.99C1109.08 353.058 1112.05 360.095 1116.92 365.102C1121.86 370.042 1128.36 372.512 1136.41 372.512ZM1162.4 325.517C1161.79 317.736 1159.18 311.713 1154.58 307.45C1150.05 303.187 1143.92 301.056 1136.21 301.056C1128.77 301.056 1122.68 303.187 1117.94 307.45C1113.27 311.713 1110.16 317.736 1108.6 325.517H1162.4ZM1209.71 392V282.38H1234.17V325.822H1283.4V282.38H1307.86V392H1283.4V348.558H1234.17V392H1209.71ZM1431.2 282.38V392H1406.73V319.935L1360.45 392H1335.99V282.38H1360.45V354.445L1406.73 282.38H1431.2ZM1508.31 372.512C1514.61 372.512 1519.82 371.226 1523.95 368.655C1528.07 366.016 1531.36 362.091 1533.79 356.881L1557.95 363.783C1553.69 373.798 1547.26 381.512 1538.66 386.925C1530.07 392.338 1519.95 395.045 1508.31 395.045C1500.13 395.045 1492.65 393.658 1485.88 390.883C1479.18 388.041 1473.43 384.083 1468.63 379.008C1463.89 373.865 1460.2 367.741 1457.56 360.636C1454.93 353.531 1453.61 345.716 1453.61 337.19C1453.61 328.529 1454.93 320.645 1457.56 313.54C1460.27 306.435 1464.03 300.345 1468.83 295.27C1473.64 290.195 1479.35 286.271 1485.98 283.496C1492.68 280.722 1500.06 279.335 1508.11 279.335C1516.84 279.335 1524.52 280.857 1531.15 283.902C1537.85 286.947 1543.4 291.278 1547.8 296.894C1552.2 302.511 1555.38 309.311 1557.34 317.296C1559.3 325.213 1559.91 334.111 1559.17 343.99H1479.89C1480.98 353.058 1483.95 360.095 1488.83 365.102C1493.77 370.042 1500.26 372.512 1508.31 372.512ZM1534.3 325.517C1533.69 317.736 1531.08 311.713 1526.48 307.45C1521.95 303.187 1515.83 301.056 1508.11 301.056C1500.67 301.056 1494.58 303.187 1489.84 307.45C1485.17 311.713 1482.06 317.736 1480.5 325.517H1534.3Z" fill="black"/>
<path d="M1643.68 392V327.2H1634.23L1617.4 337.28L1622.08 345.425L1634.23 338.135V392H1643.68ZM1683.43 325.895C1669.98 325.895 1659.09 333.14 1659.09 347.405C1659.09 361.76 1668.85 368.645 1681.63 368.645C1689.06 368.645 1695.72 366.215 1699 360.815L1698.96 363.065C1698.64 377.51 1693.47 384.53 1683.16 384.53C1675.24 384.53 1670.88 381.245 1668.9 373.775L1659.31 375.35C1662.15 387.185 1670.34 393.395 1683.25 393.395C1700.71 393.395 1708.72 381.245 1708.27 356.27C1707.91 335.66 1700.04 325.895 1683.43 325.895ZM1683.43 334.76C1692.52 334.76 1697.79 339.53 1697.79 347.135C1697.79 354.695 1692.52 359.465 1683.43 359.465C1674.34 359.465 1669.08 354.695 1669.08 347.135C1669.08 339.53 1674.34 334.76 1683.43 334.76ZM1742.45 325.895C1729 325.895 1718.11 333.14 1718.11 347.405C1718.11 361.76 1727.87 368.645 1740.65 368.645C1748.08 368.645 1754.74 366.215 1758.02 360.815L1757.98 363.065C1757.66 377.51 1752.49 384.53 1742.18 384.53C1734.26 384.53 1729.9 381.245 1727.92 373.775L1718.33 375.35C1721.17 387.185 1729.36 393.395 1742.27 393.395C1759.73 393.395 1767.74 381.245 1767.29 356.27C1766.93 335.66 1759.06 325.895 1742.45 325.895ZM1742.45 334.76C1751.54 334.76 1756.81 339.53 1756.81 347.135C1756.81 354.695 1751.54 359.465 1742.45 359.465C1733.36 359.465 1728.1 354.695 1728.1 347.135C1728.1 339.53 1733.36 334.76 1742.45 334.76ZM1823.97 372.155C1823.97 359.69 1815.69 352.22 1800.57 352.22H1789.73L1790.76 336.065H1819.61V327.2H1781.85L1779.74 361.175H1800.39C1809.12 361.175 1814.12 365.045 1814.12 372.515C1814.12 379.13 1808.72 384.485 1800.57 384.485C1791.26 384.485 1786.8 379.94 1784.91 371.93L1775.19 373.415C1777.98 387.365 1788.06 393.35 1800.39 393.35C1814.16 393.35 1823.97 385.34 1823.97 372.155Z" fill="#2088A7"/>
<mask id="mask0_6_75" style="mask-type:alpha" maskUnits="userSpaceOnUse" x="0" y="0" width="472" height="472">
<path d="M236 472C366.339 472 472 366.339 472 236C472 105.661 366.339 0 236 0C105.661 0 0 105.661 0 236C0 366.339 105.661 472 236 472Z" fill="white"/>
</mask>
<g mask="url(#mask0_6_75)">
<path d="M236 472C366.339 472 472 366.339 472 236C472 105.661 366.339 0 236 0C105.661 0 0 105.661 0 236C0 366.339 105.661 472 236 472Z" fill="white"/>
<path d="M364.068 62.8C134.824 -59.5151 123.267 271.874 43 353.463L140.825 450.351L313.901 458C353.518 455.867 593.313 185.115 364.068 62.8Z" fill="#79C2EB" fill-opacity="0.6"/>
<path opacity="0.75" d="M439.182 172.243C344.135 -14.1918 126.528 366.34 69 389.325C156.15 456.488 210.193 469.839 314.121 458.281C314.121 458.281 534.229 358.679 439.182 172.243Z" fill="#279FAF" fill-opacity="0.85"/>
<path opacity="0.75" d="M446.262 294.538C411.335 233.098 158.508 337.186 92 419.979C167.971 454.41 213.941 466.995 311.543 458.38C311.543 458.38 481.19 355.979 446.262 294.538Z" fill="#007195"/>
<path d="M236 459.5C359.436 459.5 459.5 359.436 459.5 236C459.5 112.564 359.436 12.5 236 12.5C112.564 12.5 12.5 112.564 12.5 236C12.5 359.436 112.564 459.5 236 459.5Z" stroke="url(#paint0_linear_6_75)" stroke-width="25"/>
<path fill-rule="evenodd" clip-rule="evenodd" d="M275.758 121H192.105V195.242H121V278.895H192.105V350H275.758V278.895H350V195.242H275.758V121Z" fill="white"/>
<mask id="mask1_6_75" style="mask-type:luminance" maskUnits="userSpaceOnUse" x="112" y="112" width="247" height="247">
<path d="M359 112H112V359H359V112Z" fill="white"/>
<path fill-rule="evenodd" clip-rule="evenodd" d="M275.758 121H192.105V195.242H121V278.895H192.105V350H275.758V278.895H350V195.242H275.758V121Z" fill="#1682A2"/>
</mask>
<g mask="url(#mask1_6_75)">
<path d="M192.105 121V112H183.105V121H192.105ZM275.758 121H284.758V112H275.758V121ZM192.105 195.242V204.242H201.105V195.242H192.105ZM121 195.242V186.242H112V195.242H121ZM121 278.895H112V287.895H121V278.895ZM192.105 278.895H201.105V269.895H192.105V278.895ZM192.105 350H183.105V359H192.105V350ZM275.758 350V359H284.758V350H275.758ZM275.758 278.895V269.895H266.758V278.895H275.758ZM350 278.895V287.895H359V278.895H350ZM350 195.242H359V186.242H350V195.242ZM275.758 195.242H266.758V204.242H275.758V195.242ZM192.105 130H275.758V112H192.105V130ZM201.105 195.242V121H183.105V195.242H201.105ZM121 204.242H192.105V186.242H121V204.242ZM130 278.895V195.242H112V278.895H130ZM192.105 269.895H121V287.895H192.105V269.895ZM201.105 350V278.895H183.105V350H201.105ZM275.758 341H192.105V359H275.758V341ZM266.758 278.895V350H284.758V278.895H266.758ZM350 269.895H275.758V287.895H350V269.895ZM341 195.242V278.895H359V195.242H341ZM275.758 204.242H350V186.242H275.758V204.242ZM266.758 121V195.242H284.758V121H266.758Z" fill="#1682A2"/>
</g>
<path fill-rule="evenodd" clip-rule="evenodd" d="M255.156 170.259H214.405V216.103H170.258V256.854H214.405V301H255.156V256.854H301V216.103H255.156V170.259Z" fill="#F04628"/>
</g>
<defs>
<linearGradient id="paint0_linear_6_75" x1="396.909" y1="404.955" x2="107.273" y2="67.045" gradientUnits="userSpaceOnUse">
<stop offset="0.326042" stop-color="#086A89"/>
<stop offset="1" stop-color="#96D6EA"/>
</linearGradient>
</defs>
</svg>
